<mxfile host="app.diagrams.net" modified="2024-05-13T13:47:35.742Z" agent="Mozilla/5.0 (Windows NT 10.0; Win64; x64) AppleWebKit/537.36 (KHTML, like Gecko) Chrome/124.0.0.0 Safari/537.36" etag="5NX_l52I2gISPmGk7vyf" version="24.4.0" type="device">
  <diagram id="C5RBs43oDa-KdzZeNtuy" name="Page-1">
    <mxGraphModel dx="1400" dy="3045" grid="1" gridSize="10" guides="1" tooltips="1" connect="1" arrows="1" fold="1" page="1" pageScale="1" pageWidth="827" pageHeight="1169" math="0" shadow="0">
      <root>
        <mxCell id="WIyWlLk6GJQsqaUBKTNV-0" />
        <mxCell id="WIyWlLk6GJQsqaUBKTNV-1" parent="WIyWlLk6GJQsqaUBKTNV-0" />
        <mxCell id="zkfFHV4jXpPFQw0GAbJ--0" value="TourRequest" style="swimlane;fontStyle=0;align=center;verticalAlign=top;childLayout=stackLayout;horizontal=1;startSize=26;horizontalStack=0;resizeParent=1;resizeLast=0;collapsible=1;marginBottom=0;rounded=0;shadow=0;strokeWidth=1;" parent="WIyWlLk6GJQsqaUBKTNV-1" vertex="1">
          <mxGeometry x="320" y="-2210" width="370" height="420" as="geometry">
            <mxRectangle x="230" y="140" width="160" height="26" as="alternateBounds" />
          </mxGeometry>
        </mxCell>
        <mxCell id="zkfFHV4jXpPFQw0GAbJ--1" value="+id: int" style="text;align=left;verticalAlign=top;spacingLeft=4;spacingRight=4;overflow=hidden;rotatable=0;points=[[0,0.5],[1,0.5]];portConstraint=eastwest;" parent="zkfFHV4jXpPFQw0GAbJ--0" vertex="1">
          <mxGeometry y="26" width="370" height="26" as="geometry" />
        </mxCell>
        <mxCell id="zkfFHV4jXpPFQw0GAbJ--2" value="+currentStatus: Status" style="text;align=left;verticalAlign=top;spacingLeft=4;spacingRight=4;overflow=hidden;rotatable=0;points=[[0,0.5],[1,0.5]];portConstraint=eastwest;rounded=0;shadow=0;html=0;" parent="zkfFHV4jXpPFQw0GAbJ--0" vertex="1">
          <mxGeometry y="52" width="370" height="28" as="geometry" />
        </mxCell>
        <mxCell id="zkfFHV4jXpPFQw0GAbJ--3" value="+location: string" style="text;align=left;verticalAlign=top;spacingLeft=4;spacingRight=4;overflow=hidden;rotatable=0;points=[[0,0.5],[1,0.5]];portConstraint=eastwest;rounded=0;shadow=0;html=0;" parent="zkfFHV4jXpPFQw0GAbJ--0" vertex="1">
          <mxGeometry y="80" width="370" height="26" as="geometry" />
        </mxCell>
        <mxCell id="4xdrs8CDXH-tQrmSEErc-3" value="+description: string" style="text;html=1;align=left;verticalAlign=middle;whiteSpace=wrap;rounded=0;" parent="zkfFHV4jXpPFQw0GAbJ--0" vertex="1">
          <mxGeometry y="106" width="370" height="30" as="geometry" />
        </mxCell>
        <mxCell id="4xdrs8CDXH-tQrmSEErc-4" value="+language: string" style="text;html=1;align=left;verticalAlign=middle;whiteSpace=wrap;rounded=0;" parent="zkfFHV4jXpPFQw0GAbJ--0" vertex="1">
          <mxGeometry y="136" width="370" height="30" as="geometry" />
        </mxCell>
        <mxCell id="4xdrs8CDXH-tQrmSEErc-5" value="+numberOfTourists: int" style="text;html=1;align=left;verticalAlign=middle;whiteSpace=wrap;rounded=0;" parent="zkfFHV4jXpPFQw0GAbJ--0" vertex="1">
          <mxGeometry y="166" width="370" height="30" as="geometry" />
        </mxCell>
        <mxCell id="4xdrs8CDXH-tQrmSEErc-7" value="+start: DateOnly" style="text;html=1;align=left;verticalAlign=middle;whiteSpace=wrap;rounded=0;" parent="zkfFHV4jXpPFQw0GAbJ--0" vertex="1">
          <mxGeometry y="196" width="370" height="30" as="geometry" />
        </mxCell>
        <mxCell id="4xdrs8CDXH-tQrmSEErc-8" value="+end: DateOnly" style="text;html=1;align=left;verticalAlign=middle;whiteSpace=wrap;rounded=0;" parent="zkfFHV4jXpPFQw0GAbJ--0" vertex="1">
          <mxGeometry y="226" width="370" height="30" as="geometry" />
        </mxCell>
        <mxCell id="Jx5dCP7tqQnkA9T0JR1W-1" value="+createdOn: DateOnly" style="text;html=1;align=left;verticalAlign=middle;whiteSpace=wrap;rounded=0;" parent="zkfFHV4jXpPFQw0GAbJ--0" vertex="1">
          <mxGeometry y="256" width="370" height="30" as="geometry" />
        </mxCell>
        <mxCell id="oOdrM-oRDZ1A16jME85A-0" value="+chosenDateTime: DateTime" style="text;html=1;align=left;verticalAlign=middle;whiteSpace=wrap;rounded=0;" parent="zkfFHV4jXpPFQw0GAbJ--0" vertex="1">
          <mxGeometry y="286" width="370" height="30" as="geometry" />
        </mxCell>
        <mxCell id="zkfFHV4jXpPFQw0GAbJ--4" value="" style="line;html=1;strokeWidth=1;align=left;verticalAlign=middle;spacingTop=-1;spacingLeft=3;spacingRight=3;rotatable=0;labelPosition=right;points=[];portConstraint=eastwest;" parent="zkfFHV4jXpPFQw0GAbJ--0" vertex="1">
          <mxGeometry y="316" width="370" height="10" as="geometry" />
        </mxCell>
        <mxCell id="1L37XqyfGO9U7aB_r4r0-10" value="+InvalidateOutdatedTourRequests(): void" style="text;html=1;align=left;verticalAlign=middle;whiteSpace=wrap;rounded=0;" parent="zkfFHV4jXpPFQw0GAbJ--0" vertex="1">
          <mxGeometry y="326" width="370" height="30" as="geometry" />
        </mxCell>
        <mxCell id="1L37XqyfGO9U7aB_r4r0-11" value="+CalculateAverageNumberOfTourists(userId: int, year: string): double" style="text;html=1;align=left;verticalAlign=middle;whiteSpace=wrap;rounded=0;" parent="zkfFHV4jXpPFQw0GAbJ--0" vertex="1">
          <mxGeometry y="356" width="370" height="30" as="geometry" />
        </mxCell>
        <mxCell id="1L37XqyfGO9U7aB_r4r0-12" value="+UpdatePie(userId: int, string year): SeriesCollection" style="text;html=1;align=left;verticalAlign=middle;whiteSpace=wrap;rounded=0;" parent="zkfFHV4jXpPFQw0GAbJ--0" vertex="1">
          <mxGeometry y="386" width="370" height="30" as="geometry" />
        </mxCell>
        <mxCell id="zkfFHV4jXpPFQw0GAbJ--6" value="User" style="swimlane;fontStyle=0;align=center;verticalAlign=top;childLayout=stackLayout;horizontal=1;startSize=26;horizontalStack=0;resizeParent=1;resizeLast=0;collapsible=1;marginBottom=0;rounded=0;shadow=0;strokeWidth=1;" parent="WIyWlLk6GJQsqaUBKTNV-1" vertex="1">
          <mxGeometry x="160" y="-1690" width="160" height="236" as="geometry">
            <mxRectangle x="130" y="380" width="160" height="26" as="alternateBounds" />
          </mxGeometry>
        </mxCell>
        <mxCell id="zkfFHV4jXpPFQw0GAbJ--7" value="+id: int" style="text;align=left;verticalAlign=top;spacingLeft=4;spacingRight=4;overflow=hidden;rotatable=0;points=[[0,0.5],[1,0.5]];portConstraint=eastwest;" parent="zkfFHV4jXpPFQw0GAbJ--6" vertex="1">
          <mxGeometry y="26" width="160" height="26" as="geometry" />
        </mxCell>
        <mxCell id="zkfFHV4jXpPFQw0GAbJ--8" value="+username: string" style="text;align=left;verticalAlign=top;spacingLeft=4;spacingRight=4;overflow=hidden;rotatable=0;points=[[0,0.5],[1,0.5]];portConstraint=eastwest;rounded=0;shadow=0;html=0;" parent="zkfFHV4jXpPFQw0GAbJ--6" vertex="1">
          <mxGeometry y="52" width="160" height="26" as="geometry" />
        </mxCell>
        <mxCell id="oOdrM-oRDZ1A16jME85A-14" value="+password: string" style="text;html=1;align=left;verticalAlign=middle;whiteSpace=wrap;rounded=0;" parent="zkfFHV4jXpPFQw0GAbJ--6" vertex="1">
          <mxGeometry y="78" width="160" height="30" as="geometry" />
        </mxCell>
        <mxCell id="oOdrM-oRDZ1A16jME85A-15" value="+firstName: string" style="text;html=1;align=left;verticalAlign=middle;whiteSpace=wrap;rounded=0;" parent="zkfFHV4jXpPFQw0GAbJ--6" vertex="1">
          <mxGeometry y="108" width="160" height="30" as="geometry" />
        </mxCell>
        <mxCell id="oOdrM-oRDZ1A16jME85A-16" value="+lastName: string" style="text;html=1;align=left;verticalAlign=middle;whiteSpace=wrap;rounded=0;" parent="zkfFHV4jXpPFQw0GAbJ--6" vertex="1">
          <mxGeometry y="138" width="160" height="30" as="geometry" />
        </mxCell>
        <mxCell id="oOdrM-oRDZ1A16jME85A-18" value="+age: int" style="text;html=1;align=left;verticalAlign=middle;whiteSpace=wrap;rounded=0;" parent="zkfFHV4jXpPFQw0GAbJ--6" vertex="1">
          <mxGeometry y="168" width="160" height="30" as="geometry" />
        </mxCell>
        <mxCell id="oOdrM-oRDZ1A16jME85A-21" value="+role: Roles" style="text;html=1;align=left;verticalAlign=middle;whiteSpace=wrap;rounded=0;" parent="zkfFHV4jXpPFQw0GAbJ--6" vertex="1">
          <mxGeometry y="198" width="160" height="30" as="geometry" />
        </mxCell>
        <mxCell id="zkfFHV4jXpPFQw0GAbJ--17" value="Tourist" style="swimlane;fontStyle=0;align=center;verticalAlign=top;childLayout=stackLayout;horizontal=1;startSize=26;horizontalStack=0;resizeParent=1;resizeLast=0;collapsible=1;marginBottom=0;rounded=0;shadow=0;strokeWidth=1;" parent="WIyWlLk6GJQsqaUBKTNV-1" vertex="1">
          <mxGeometry x="20" y="-2300" width="160" height="200" as="geometry">
            <mxRectangle x="550" y="140" width="160" height="26" as="alternateBounds" />
          </mxGeometry>
        </mxCell>
        <mxCell id="zkfFHV4jXpPFQw0GAbJ--18" value="+id: int" style="text;align=left;verticalAlign=top;spacingLeft=4;spacingRight=4;overflow=hidden;rotatable=0;points=[[0,0.5],[1,0.5]];portConstraint=eastwest;" parent="zkfFHV4jXpPFQw0GAbJ--17" vertex="1">
          <mxGeometry y="26" width="160" height="26" as="geometry" />
        </mxCell>
        <mxCell id="zkfFHV4jXpPFQw0GAbJ--19" value="+name: string" style="text;align=left;verticalAlign=top;spacingLeft=4;spacingRight=4;overflow=hidden;rotatable=0;points=[[0,0.5],[1,0.5]];portConstraint=eastwest;rounded=0;shadow=0;html=0;" parent="zkfFHV4jXpPFQw0GAbJ--17" vertex="1">
          <mxGeometry y="52" width="160" height="26" as="geometry" />
        </mxCell>
        <mxCell id="zkfFHV4jXpPFQw0GAbJ--20" value="+lastName: string" style="text;align=left;verticalAlign=top;spacingLeft=4;spacingRight=4;overflow=hidden;rotatable=0;points=[[0,0.5],[1,0.5]];portConstraint=eastwest;rounded=0;shadow=0;html=0;" parent="zkfFHV4jXpPFQw0GAbJ--17" vertex="1">
          <mxGeometry y="78" width="160" height="26" as="geometry" />
        </mxCell>
        <mxCell id="zkfFHV4jXpPFQw0GAbJ--21" value="+age: int" style="text;align=left;verticalAlign=top;spacingLeft=4;spacingRight=4;overflow=hidden;rotatable=0;points=[[0,0.5],[1,0.5]];portConstraint=eastwest;rounded=0;shadow=0;html=0;" parent="zkfFHV4jXpPFQw0GAbJ--17" vertex="1">
          <mxGeometry y="104" width="160" height="26" as="geometry" />
        </mxCell>
        <mxCell id="4xdrs8CDXH-tQrmSEErc-11" value="+showedUp: bool" style="text;html=1;align=left;verticalAlign=middle;whiteSpace=wrap;rounded=0;" parent="zkfFHV4jXpPFQw0GAbJ--17" vertex="1">
          <mxGeometry y="130" width="160" height="30" as="geometry" />
        </mxCell>
        <mxCell id="4xdrs8CDXH-tQrmSEErc-13" value="+isNotified: bool" style="text;html=1;align=left;verticalAlign=middle;whiteSpace=wrap;rounded=0;" parent="zkfFHV4jXpPFQw0GAbJ--17" vertex="1">
          <mxGeometry y="160" width="160" height="30" as="geometry" />
        </mxCell>
        <mxCell id="4xdrs8CDXH-tQrmSEErc-10" value="" style="endArrow=none;html=1;rounded=0;startArrow=openThin;startFill=0;entryX=0;entryY=0;entryDx=0;entryDy=0;exitX=1;exitY=0.5;exitDx=0;exitDy=0;" parent="WIyWlLk6GJQsqaUBKTNV-1" source="zkfFHV4jXpPFQw0GAbJ--20" target="zkfFHV4jXpPFQw0GAbJ--0" edge="1">
          <mxGeometry width="50" height="50" relative="1" as="geometry">
            <mxPoint x="210" y="-1310" as="sourcePoint" />
            <mxPoint x="210" y="-1400.5" as="targetPoint" />
            <Array as="points" />
          </mxGeometry>
        </mxCell>
        <mxCell id="4xdrs8CDXH-tQrmSEErc-17" value="1, *" style="edgeLabel;html=1;align=center;verticalAlign=middle;resizable=0;points=[];" parent="4xdrs8CDXH-tQrmSEErc-10" vertex="1" connectable="0">
          <mxGeometry x="-0.8332" y="-1" relative="1" as="geometry">
            <mxPoint x="21" y="6" as="offset" />
          </mxGeometry>
        </mxCell>
        <mxCell id="oOdrM-oRDZ1A16jME85A-8" value="0,1" style="edgeLabel;html=1;align=center;verticalAlign=middle;resizable=0;points=[];" parent="4xdrs8CDXH-tQrmSEErc-10" vertex="1" connectable="0">
          <mxGeometry x="0.6215" y="1" relative="1" as="geometry">
            <mxPoint x="-5" y="-11" as="offset" />
          </mxGeometry>
        </mxCell>
        <mxCell id="oOdrM-oRDZ1A16jME85A-3" value="" style="endArrow=none;html=1;rounded=0;startArrow=open;startFill=0;entryX=0;entryY=1;entryDx=0;entryDy=0;exitX=1;exitY=0;exitDx=0;exitDy=0;" parent="WIyWlLk6GJQsqaUBKTNV-1" source="zkfFHV4jXpPFQw0GAbJ--6" target="zkfFHV4jXpPFQw0GAbJ--0" edge="1">
          <mxGeometry width="50" height="50" relative="1" as="geometry">
            <mxPoint x="540" y="-670" as="sourcePoint" />
            <mxPoint x="610" y="-630" as="targetPoint" />
          </mxGeometry>
        </mxCell>
        <mxCell id="oOdrM-oRDZ1A16jME85A-9" value="1,*" style="edgeLabel;html=1;align=center;verticalAlign=middle;resizable=0;points=[];" parent="oOdrM-oRDZ1A16jME85A-3" vertex="1" connectable="0">
          <mxGeometry x="-0.6066" y="2" relative="1" as="geometry">
            <mxPoint y="-18" as="offset" />
          </mxGeometry>
        </mxCell>
        <mxCell id="oOdrM-oRDZ1A16jME85A-23" value="0,*" style="edgeLabel;html=1;align=center;verticalAlign=middle;resizable=0;points=[];" parent="oOdrM-oRDZ1A16jME85A-3" vertex="1" connectable="0">
          <mxGeometry x="0.73" relative="1" as="geometry">
            <mxPoint x="-4" y="7" as="offset" />
          </mxGeometry>
        </mxCell>
        <mxCell id="oOdrM-oRDZ1A16jME85A-4" value="&lt;span style=&quot;font-weight: normal;&quot;&gt;Status&lt;br&gt;&amp;lt;&amp;lt;Enum&amp;gt;&amp;gt;&lt;/span&gt;" style="swimlane;fontStyle=1;align=center;verticalAlign=middle;childLayout=stackLayout;horizontal=1;startSize=29;horizontalStack=0;resizeParent=1;resizeParentMax=0;resizeLast=0;collapsible=0;marginBottom=0;html=1;whiteSpace=wrap;" parent="WIyWlLk6GJQsqaUBKTNV-1" vertex="1">
          <mxGeometry x="310" y="-2330" width="140" height="109" as="geometry" />
        </mxCell>
        <mxCell id="oOdrM-oRDZ1A16jME85A-5" value="Accepted" style="text;html=1;strokeColor=none;fillColor=none;align=left;verticalAlign=middle;spacingLeft=4;spacingRight=4;overflow=hidden;rotatable=0;points=[[0,0.5],[1,0.5]];portConstraint=eastwest;whiteSpace=wrap;" parent="oOdrM-oRDZ1A16jME85A-4" vertex="1">
          <mxGeometry y="29" width="140" height="25" as="geometry" />
        </mxCell>
        <mxCell id="oOdrM-oRDZ1A16jME85A-6" value="OnHold" style="text;html=1;strokeColor=none;fillColor=none;align=left;verticalAlign=middle;spacingLeft=4;spacingRight=4;overflow=hidden;rotatable=0;points=[[0,0.5],[1,0.5]];portConstraint=eastwest;whiteSpace=wrap;" parent="oOdrM-oRDZ1A16jME85A-4" vertex="1">
          <mxGeometry y="54" width="140" height="25" as="geometry" />
        </mxCell>
        <mxCell id="oOdrM-oRDZ1A16jME85A-7" value="Invalid" style="text;html=1;align=left;verticalAlign=middle;whiteSpace=wrap;rounded=0;" parent="oOdrM-oRDZ1A16jME85A-4" vertex="1">
          <mxGeometry y="79" width="140" height="30" as="geometry" />
        </mxCell>
        <mxCell id="oOdrM-oRDZ1A16jME85A-10" value="&lt;span style=&quot;font-weight: normal;&quot;&gt;Role&lt;br&gt;&amp;lt;&amp;lt;Enum&amp;gt;&amp;gt;&lt;/span&gt;" style="swimlane;fontStyle=1;align=center;verticalAlign=middle;childLayout=stackLayout;horizontal=1;startSize=29;horizontalStack=0;resizeParent=1;resizeParentMax=0;resizeLast=0;collapsible=0;marginBottom=0;html=1;whiteSpace=wrap;" parent="WIyWlLk6GJQsqaUBKTNV-1" vertex="1">
          <mxGeometry x="140" y="-2060" width="160" height="140" as="geometry" />
        </mxCell>
        <mxCell id="oOdrM-oRDZ1A16jME85A-11" value="OWNER" style="text;html=1;strokeColor=none;fillColor=none;align=left;verticalAlign=middle;spacingLeft=4;spacingRight=4;overflow=hidden;rotatable=0;points=[[0,0.5],[1,0.5]];portConstraint=eastwest;whiteSpace=wrap;" parent="oOdrM-oRDZ1A16jME85A-10" vertex="1">
          <mxGeometry y="29" width="160" height="25" as="geometry" />
        </mxCell>
        <mxCell id="oOdrM-oRDZ1A16jME85A-12" value="GUIDE" style="text;html=1;strokeColor=none;fillColor=none;align=left;verticalAlign=middle;spacingLeft=4;spacingRight=4;overflow=hidden;rotatable=0;points=[[0,0.5],[1,0.5]];portConstraint=eastwest;whiteSpace=wrap;" parent="oOdrM-oRDZ1A16jME85A-10" vertex="1">
          <mxGeometry y="54" width="160" height="25" as="geometry" />
        </mxCell>
        <mxCell id="oOdrM-oRDZ1A16jME85A-13" value="TOURIST" style="text;html=1;align=left;verticalAlign=middle;whiteSpace=wrap;rounded=0;" parent="oOdrM-oRDZ1A16jME85A-10" vertex="1">
          <mxGeometry y="79" width="160" height="31" as="geometry" />
        </mxCell>
        <mxCell id="oOdrM-oRDZ1A16jME85A-22" value="GUEST" style="text;html=1;align=left;verticalAlign=middle;whiteSpace=wrap;rounded=0;" parent="oOdrM-oRDZ1A16jME85A-10" vertex="1">
          <mxGeometry y="110" width="160" height="30" as="geometry" />
        </mxCell>
        <mxCell id="qXBfFg2nm66dMv1WNin6-3" value="TouristNotifications" style="swimlane;fontStyle=0;align=center;verticalAlign=top;childLayout=stackLayout;horizontal=1;startSize=26;horizontalStack=0;resizeParent=1;resizeLast=0;collapsible=1;marginBottom=0;rounded=0;shadow=0;strokeWidth=1;" parent="WIyWlLk6GJQsqaUBKTNV-1" vertex="1">
          <mxGeometry x="780" y="-1990" width="400" height="180" as="geometry">
            <mxRectangle x="550" y="140" width="160" height="26" as="alternateBounds" />
          </mxGeometry>
        </mxCell>
        <mxCell id="qXBfFg2nm66dMv1WNin6-4" value="+id: int" style="text;align=left;verticalAlign=top;spacingLeft=4;spacingRight=4;overflow=hidden;rotatable=0;points=[[0,0.5],[1,0.5]];portConstraint=eastwest;" parent="qXBfFg2nm66dMv1WNin6-3" vertex="1">
          <mxGeometry y="26" width="400" height="26" as="geometry" />
        </mxCell>
        <mxCell id="qXBfFg2nm66dMv1WNin6-5" value="+message: string" style="text;align=left;verticalAlign=top;spacingLeft=4;spacingRight=4;overflow=hidden;rotatable=0;points=[[0,0.5],[1,0.5]];portConstraint=eastwest;rounded=0;shadow=0;html=0;" parent="qXBfFg2nm66dMv1WNin6-3" vertex="1">
          <mxGeometry y="52" width="400" height="26" as="geometry" />
        </mxCell>
        <mxCell id="qXBfFg2nm66dMv1WNin6-6" value="+isRead: bool" style="text;align=left;verticalAlign=top;spacingLeft=4;spacingRight=4;overflow=hidden;rotatable=0;points=[[0,0.5],[1,0.5]];portConstraint=eastwest;rounded=0;shadow=0;html=0;" parent="qXBfFg2nm66dMv1WNin6-3" vertex="1">
          <mxGeometry y="78" width="400" height="26" as="geometry" />
        </mxCell>
        <mxCell id="qXBfFg2nm66dMv1WNin6-8" value="+type: NotificationType" style="text;align=left;verticalAlign=top;spacingLeft=4;spacingRight=4;overflow=hidden;rotatable=0;points=[[0,0.5],[1,0.5]];portConstraint=eastwest;rounded=0;shadow=0;html=0;" parent="qXBfFg2nm66dMv1WNin6-3" vertex="1">
          <mxGeometry y="104" width="400" height="26" as="geometry" />
        </mxCell>
        <mxCell id="miDEvIIvgpu8fBFP5tx0-1" value="" style="endArrow=none;html=1;rounded=0;entryX=0.992;entryY=1.031;entryDx=0;entryDy=0;entryPerimeter=0;exitX=-0.008;exitY=1.031;exitDx=0;exitDy=0;exitPerimeter=0;" parent="qXBfFg2nm66dMv1WNin6-3" source="qXBfFg2nm66dMv1WNin6-8" target="qXBfFg2nm66dMv1WNin6-8" edge="1">
          <mxGeometry width="50" height="50" relative="1" as="geometry">
            <mxPoint x="80" y="180" as="sourcePoint" />
            <mxPoint x="130" y="130" as="targetPoint" />
          </mxGeometry>
        </mxCell>
        <mxCell id="rjSK6WhWJWqu_S0j7gii-0" value="&lt;span style=&quot;&quot;&gt;+NotifyUser(savedTour: Tour, savedTourInstance: TourInstance, newTourCreationNotification: TourCreationNotification): void&lt;/span&gt;" style="text;html=1;align=left;verticalAlign=middle;whiteSpace=wrap;rounded=0;" vertex="1" parent="qXBfFg2nm66dMv1WNin6-3">
          <mxGeometry y="130" width="400" height="30" as="geometry" />
        </mxCell>
        <mxCell id="qXBfFg2nm66dMv1WNin6-12" value="&lt;span style=&quot;font-weight: normal;&quot;&gt;NotificationType&lt;br&gt;&amp;lt;&amp;lt;Enum&amp;gt;&amp;gt;&lt;/span&gt;" style="swimlane;fontStyle=1;align=center;verticalAlign=middle;childLayout=stackLayout;horizontal=1;startSize=29;horizontalStack=0;resizeParent=1;resizeParentMax=0;resizeLast=0;collapsible=0;marginBottom=0;html=1;whiteSpace=wrap;" parent="WIyWlLk6GJQsqaUBKTNV-1" vertex="1">
          <mxGeometry x="725" y="-2150" width="140" height="109" as="geometry" />
        </mxCell>
        <mxCell id="qXBfFg2nm66dMv1WNin6-13" value="TourCreation" style="text;html=1;strokeColor=none;fillColor=none;align=left;verticalAlign=middle;spacingLeft=4;spacingRight=4;overflow=hidden;rotatable=0;points=[[0,0.5],[1,0.5]];portConstraint=eastwest;whiteSpace=wrap;" parent="qXBfFg2nm66dMv1WNin6-12" vertex="1">
          <mxGeometry y="29" width="140" height="25" as="geometry" />
        </mxCell>
        <mxCell id="qXBfFg2nm66dMv1WNin6-14" value="AddedToLiveTour" style="text;html=1;strokeColor=none;fillColor=none;align=left;verticalAlign=middle;spacingLeft=4;spacingRight=4;overflow=hidden;rotatable=0;points=[[0,0.5],[1,0.5]];portConstraint=eastwest;whiteSpace=wrap;" parent="qXBfFg2nm66dMv1WNin6-12" vertex="1">
          <mxGeometry y="54" width="140" height="25" as="geometry" />
        </mxCell>
        <mxCell id="qXBfFg2nm66dMv1WNin6-15" value="TourRequestAcceptance" style="text;html=1;align=left;verticalAlign=middle;whiteSpace=wrap;rounded=0;" parent="qXBfFg2nm66dMv1WNin6-12" vertex="1">
          <mxGeometry y="79" width="140" height="30" as="geometry" />
        </mxCell>
        <mxCell id="qXBfFg2nm66dMv1WNin6-16" value="TourRequestAcceptanceNotification" style="swimlane;fontStyle=0;align=center;verticalAlign=top;childLayout=stackLayout;horizontal=1;startSize=26;horizontalStack=0;resizeParent=1;resizeLast=0;collapsible=1;marginBottom=0;rounded=0;shadow=0;strokeWidth=1;" parent="WIyWlLk6GJQsqaUBKTNV-1" vertex="1">
          <mxGeometry x="870" y="-2210" width="210" height="60" as="geometry">
            <mxRectangle x="870" y="-2000" width="160" height="26" as="alternateBounds" />
          </mxGeometry>
        </mxCell>
        <mxCell id="qXBfFg2nm66dMv1WNin6-17" value="+id: int" style="text;align=left;verticalAlign=top;spacingLeft=4;spacingRight=4;overflow=hidden;rotatable=0;points=[[0,0.5],[1,0.5]];portConstraint=eastwest;" parent="qXBfFg2nm66dMv1WNin6-16" vertex="1">
          <mxGeometry y="26" width="210" height="26" as="geometry" />
        </mxCell>
        <mxCell id="qXBfFg2nm66dMv1WNin6-24" value="" style="endArrow=none;html=1;rounded=0;startArrow=diamondThin;startFill=1;entryX=0.5;entryY=1;entryDx=0;entryDy=0;exitX=0.5;exitY=0;exitDx=0;exitDy=0;" parent="WIyWlLk6GJQsqaUBKTNV-1" source="qXBfFg2nm66dMv1WNin6-3" target="qXBfFg2nm66dMv1WNin6-16" edge="1">
          <mxGeometry width="50" height="50" relative="1" as="geometry">
            <mxPoint x="1000" y="-1680" as="sourcePoint" />
            <mxPoint x="810" y="-500" as="targetPoint" />
            <Array as="points" />
          </mxGeometry>
        </mxCell>
        <mxCell id="qXBfFg2nm66dMv1WNin6-71" value="0,1" style="edgeLabel;html=1;align=center;verticalAlign=middle;resizable=0;points=[];" parent="qXBfFg2nm66dMv1WNin6-24" vertex="1" connectable="0">
          <mxGeometry x="0.7606" y="-1" relative="1" as="geometry">
            <mxPoint y="1" as="offset" />
          </mxGeometry>
        </mxCell>
        <mxCell id="qXBfFg2nm66dMv1WNin6-72" value="1,1" style="edgeLabel;html=1;align=center;verticalAlign=middle;resizable=0;points=[];" parent="qXBfFg2nm66dMv1WNin6-24" vertex="1" connectable="0">
          <mxGeometry x="-0.5583" y="1" relative="1" as="geometry">
            <mxPoint as="offset" />
          </mxGeometry>
        </mxCell>
        <mxCell id="qXBfFg2nm66dMv1WNin6-27" value="" style="endArrow=none;html=1;rounded=0;entryX=0;entryY=0;entryDx=0;entryDy=0;startArrow=openThin;startFill=0;exitX=1;exitY=0;exitDx=0;exitDy=0;" parent="WIyWlLk6GJQsqaUBKTNV-1" source="zkfFHV4jXpPFQw0GAbJ--0" target="qXBfFg2nm66dMv1WNin6-16" edge="1">
          <mxGeometry width="50" height="50" relative="1" as="geometry">
            <mxPoint x="710" y="-2060" as="sourcePoint" />
            <mxPoint x="680" y="-520" as="targetPoint" />
          </mxGeometry>
        </mxCell>
        <mxCell id="qXBfFg2nm66dMv1WNin6-28" value="1,1" style="edgeLabel;html=1;align=center;verticalAlign=middle;resizable=0;points=[];" parent="qXBfFg2nm66dMv1WNin6-27" vertex="1" connectable="0">
          <mxGeometry x="-0.7755" y="1" relative="1" as="geometry">
            <mxPoint as="offset" />
          </mxGeometry>
        </mxCell>
        <mxCell id="qXBfFg2nm66dMv1WNin6-29" value="0,1" style="edgeLabel;html=1;align=center;verticalAlign=middle;resizable=0;points=[];" parent="qXBfFg2nm66dMv1WNin6-27" vertex="1" connectable="0">
          <mxGeometry x="0.7484" y="-1" relative="1" as="geometry">
            <mxPoint as="offset" />
          </mxGeometry>
        </mxCell>
        <mxCell id="qXBfFg2nm66dMv1WNin6-34" value="" style="endArrow=diamondThin;html=1;rounded=0;exitX=0.5;exitY=0;exitDx=0;exitDy=0;entryX=0.5;entryY=1;entryDx=0;entryDy=0;startArrow=none;startFill=0;endFill=1;" parent="WIyWlLk6GJQsqaUBKTNV-1" source="qXBfFg2nm66dMv1WNin6-35" target="qXBfFg2nm66dMv1WNin6-3" edge="1">
          <mxGeometry width="50" height="50" relative="1" as="geometry">
            <mxPoint x="1035" y="-419.99999999999955" as="sourcePoint" />
            <mxPoint x="1200" y="-520" as="targetPoint" />
          </mxGeometry>
        </mxCell>
        <mxCell id="qXBfFg2nm66dMv1WNin6-59" value="0,1" style="edgeLabel;html=1;align=center;verticalAlign=middle;resizable=0;points=[];" parent="qXBfFg2nm66dMv1WNin6-34" vertex="1" connectable="0">
          <mxGeometry x="-0.5495" y="1" relative="1" as="geometry">
            <mxPoint as="offset" />
          </mxGeometry>
        </mxCell>
        <mxCell id="qXBfFg2nm66dMv1WNin6-73" value="1,1" style="edgeLabel;html=1;align=center;verticalAlign=middle;resizable=0;points=[];" parent="qXBfFg2nm66dMv1WNin6-34" vertex="1" connectable="0">
          <mxGeometry x="0.619" y="1" relative="1" as="geometry">
            <mxPoint as="offset" />
          </mxGeometry>
        </mxCell>
        <mxCell id="qXBfFg2nm66dMv1WNin6-35" value="TourCreationNotification" style="swimlane;fontStyle=0;align=center;verticalAlign=top;childLayout=stackLayout;horizontal=1;startSize=26;horizontalStack=0;resizeParent=1;resizeLast=0;collapsible=1;marginBottom=0;rounded=0;shadow=0;strokeWidth=1;" parent="WIyWlLk6GJQsqaUBKTNV-1" vertex="1">
          <mxGeometry x="870" y="-1690" width="220" height="110" as="geometry">
            <mxRectangle x="130" y="380" width="160" height="26" as="alternateBounds" />
          </mxGeometry>
        </mxCell>
        <mxCell id="qXBfFg2nm66dMv1WNin6-36" value="+id: int" style="text;align=left;verticalAlign=top;spacingLeft=4;spacingRight=4;overflow=hidden;rotatable=0;points=[[0,0.5],[1,0.5]];portConstraint=eastwest;" parent="qXBfFg2nm66dMv1WNin6-35" vertex="1">
          <mxGeometry y="26" width="220" height="26" as="geometry" />
        </mxCell>
        <mxCell id="qXBfFg2nm66dMv1WNin6-37" value="+isBasedOnLanguage: bool" style="text;align=left;verticalAlign=top;spacingLeft=4;spacingRight=4;overflow=hidden;rotatable=0;points=[[0,0.5],[1,0.5]];portConstraint=eastwest;rounded=0;shadow=0;html=0;" parent="qXBfFg2nm66dMv1WNin6-35" vertex="1">
          <mxGeometry y="52" width="220" height="26" as="geometry" />
        </mxCell>
        <mxCell id="qXBfFg2nm66dMv1WNin6-38" value="+isBasedOnLocation: bool" style="text;html=1;align=left;verticalAlign=middle;whiteSpace=wrap;rounded=0;" parent="qXBfFg2nm66dMv1WNin6-35" vertex="1">
          <mxGeometry y="78" width="220" height="30" as="geometry" />
        </mxCell>
        <mxCell id="qXBfFg2nm66dMv1WNin6-44" value="TourInstance" style="swimlane;fontStyle=0;align=center;verticalAlign=top;childLayout=stackLayout;horizontal=1;startSize=26;horizontalStack=0;resizeParent=1;resizeLast=0;collapsible=1;marginBottom=0;rounded=0;shadow=0;strokeWidth=1;" parent="WIyWlLk6GJQsqaUBKTNV-1" vertex="1">
          <mxGeometry x="890" y="-1480" width="190" height="290" as="geometry">
            <mxRectangle x="230" y="140" width="160" height="26" as="alternateBounds" />
          </mxGeometry>
        </mxCell>
        <mxCell id="qXBfFg2nm66dMv1WNin6-45" value="+id: int" style="text;align=left;verticalAlign=top;spacingLeft=4;spacingRight=4;overflow=hidden;rotatable=0;points=[[0,0.5],[1,0.5]];portConstraint=eastwest;" parent="qXBfFg2nm66dMv1WNin6-44" vertex="1">
          <mxGeometry y="26" width="190" height="26" as="geometry" />
        </mxCell>
        <mxCell id="qXBfFg2nm66dMv1WNin6-46" value="+date: DateTime" style="text;align=left;verticalAlign=top;spacingLeft=4;spacingRight=4;overflow=hidden;rotatable=0;points=[[0,0.5],[1,0.5]];portConstraint=eastwest;rounded=0;shadow=0;html=0;" parent="qXBfFg2nm66dMv1WNin6-44" vertex="1">
          <mxGeometry y="52" width="190" height="28" as="geometry" />
        </mxCell>
        <mxCell id="qXBfFg2nm66dMv1WNin6-47" value="+emptySpots: int" style="text;align=left;verticalAlign=top;spacingLeft=4;spacingRight=4;overflow=hidden;rotatable=0;points=[[0,0.5],[1,0.5]];portConstraint=eastwest;rounded=0;shadow=0;html=0;" parent="qXBfFg2nm66dMv1WNin6-44" vertex="1">
          <mxGeometry y="80" width="190" height="26" as="geometry" />
        </mxCell>
        <mxCell id="qXBfFg2nm66dMv1WNin6-48" value="+start: bool" style="text;html=1;align=left;verticalAlign=middle;whiteSpace=wrap;rounded=0;" parent="qXBfFg2nm66dMv1WNin6-44" vertex="1">
          <mxGeometry y="106" width="190" height="30" as="geometry" />
        </mxCell>
        <mxCell id="qXBfFg2nm66dMv1WNin6-49" value="+end: bool" style="text;html=1;align=left;verticalAlign=middle;whiteSpace=wrap;rounded=0;" parent="qXBfFg2nm66dMv1WNin6-44" vertex="1">
          <mxGeometry y="136" width="190" height="30" as="geometry" />
        </mxCell>
        <mxCell id="qXBfFg2nm66dMv1WNin6-50" value="+numberOfTourists: int" style="text;html=1;align=left;verticalAlign=middle;whiteSpace=wrap;rounded=0;" parent="qXBfFg2nm66dMv1WNin6-44" vertex="1">
          <mxGeometry y="166" width="190" height="30" as="geometry" />
        </mxCell>
        <mxCell id="qXBfFg2nm66dMv1WNin6-51" value="+start: DateOnly" style="text;html=1;align=left;verticalAlign=middle;whiteSpace=wrap;rounded=0;" parent="qXBfFg2nm66dMv1WNin6-44" vertex="1">
          <mxGeometry y="196" width="190" height="30" as="geometry" />
        </mxCell>
        <mxCell id="qXBfFg2nm66dMv1WNin6-52" value="+end: DateOnly" style="text;html=1;align=left;verticalAlign=middle;whiteSpace=wrap;rounded=0;" parent="qXBfFg2nm66dMv1WNin6-44" vertex="1">
          <mxGeometry y="226" width="190" height="30" as="geometry" />
        </mxCell>
        <mxCell id="qXBfFg2nm66dMv1WNin6-53" value="+isNotReviewed: bool" style="text;html=1;align=left;verticalAlign=middle;whiteSpace=wrap;rounded=0;" parent="qXBfFg2nm66dMv1WNin6-44" vertex="1">
          <mxGeometry y="256" width="190" height="30" as="geometry" />
        </mxCell>
        <mxCell id="qXBfFg2nm66dMv1WNin6-74" value="Tour" style="swimlane;fontStyle=0;align=center;verticalAlign=top;childLayout=stackLayout;horizontal=1;startSize=26;horizontalStack=0;resizeParent=1;resizeLast=0;collapsible=1;marginBottom=0;rounded=0;shadow=0;strokeWidth=1;" parent="WIyWlLk6GJQsqaUBKTNV-1" vertex="1">
          <mxGeometry x="490" y="-1460" width="190" height="266" as="geometry">
            <mxRectangle x="230" y="140" width="160" height="26" as="alternateBounds" />
          </mxGeometry>
        </mxCell>
        <mxCell id="qXBfFg2nm66dMv1WNin6-75" value="+id: int" style="text;align=left;verticalAlign=top;spacingLeft=4;spacingRight=4;overflow=hidden;rotatable=0;points=[[0,0.5],[1,0.5]];portConstraint=eastwest;" parent="qXBfFg2nm66dMv1WNin6-74" vertex="1">
          <mxGeometry y="26" width="190" height="26" as="geometry" />
        </mxCell>
        <mxCell id="qXBfFg2nm66dMv1WNin6-76" value="+title: string" style="text;align=left;verticalAlign=top;spacingLeft=4;spacingRight=4;overflow=hidden;rotatable=0;points=[[0,0.5],[1,0.5]];portConstraint=eastwest;rounded=0;shadow=0;html=0;" parent="qXBfFg2nm66dMv1WNin6-74" vertex="1">
          <mxGeometry y="52" width="190" height="28" as="geometry" />
        </mxCell>
        <mxCell id="qXBfFg2nm66dMv1WNin6-77" value="+description: string" style="text;align=left;verticalAlign=top;spacingLeft=4;spacingRight=4;overflow=hidden;rotatable=0;points=[[0,0.5],[1,0.5]];portConstraint=eastwest;rounded=0;shadow=0;html=0;" parent="qXBfFg2nm66dMv1WNin6-74" vertex="1">
          <mxGeometry y="80" width="190" height="26" as="geometry" />
        </mxCell>
        <mxCell id="qXBfFg2nm66dMv1WNin6-78" value="+location: string" style="text;html=1;align=left;verticalAlign=middle;whiteSpace=wrap;rounded=0;" parent="qXBfFg2nm66dMv1WNin6-74" vertex="1">
          <mxGeometry y="106" width="190" height="30" as="geometry" />
        </mxCell>
        <mxCell id="qXBfFg2nm66dMv1WNin6-79" value="+language: string" style="text;html=1;align=left;verticalAlign=middle;whiteSpace=wrap;rounded=0;" parent="qXBfFg2nm66dMv1WNin6-74" vertex="1">
          <mxGeometry y="136" width="190" height="30" as="geometry" />
        </mxCell>
        <mxCell id="qXBfFg2nm66dMv1WNin6-80" value="+maxTourists: int" style="text;html=1;align=left;verticalAlign=middle;whiteSpace=wrap;rounded=0;" parent="qXBfFg2nm66dMv1WNin6-74" vertex="1">
          <mxGeometry y="166" width="190" height="30" as="geometry" />
        </mxCell>
        <mxCell id="1L37XqyfGO9U7aB_r4r0-7" value="+duration: int" style="text;html=1;align=left;verticalAlign=middle;whiteSpace=wrap;rounded=0;" parent="qXBfFg2nm66dMv1WNin6-74" vertex="1">
          <mxGeometry y="196" width="190" height="30" as="geometry" />
        </mxCell>
        <mxCell id="1L37XqyfGO9U7aB_r4r0-8" value="+dates: List&amp;lt;DateTime&amp;gt;" style="text;html=1;align=left;verticalAlign=middle;whiteSpace=wrap;rounded=0;" parent="qXBfFg2nm66dMv1WNin6-74" vertex="1">
          <mxGeometry y="226" width="190" height="30" as="geometry" />
        </mxCell>
        <mxCell id="qXBfFg2nm66dMv1WNin6-86" value="" style="endArrow=none;html=1;rounded=0;entryX=0;entryY=1;entryDx=0;entryDy=0;exitX=1;exitY=0.5;exitDx=0;exitDy=0;startArrow=openThin;startFill=0;" parent="WIyWlLk6GJQsqaUBKTNV-1" source="zkfFHV4jXpPFQw0GAbJ--8" target="qXBfFg2nm66dMv1WNin6-3" edge="1">
          <mxGeometry width="50" height="50" relative="1" as="geometry">
            <mxPoint x="670" y="-490" as="sourcePoint" />
            <mxPoint x="740" y="-550" as="targetPoint" />
            <Array as="points" />
          </mxGeometry>
        </mxCell>
        <mxCell id="qXBfFg2nm66dMv1WNin6-87" value="0,*" style="edgeLabel;html=1;align=center;verticalAlign=middle;resizable=0;points=[];" parent="qXBfFg2nm66dMv1WNin6-86" vertex="1" connectable="0">
          <mxGeometry x="0.8199" y="-1" relative="1" as="geometry">
            <mxPoint as="offset" />
          </mxGeometry>
        </mxCell>
        <mxCell id="qXBfFg2nm66dMv1WNin6-88" value="1,1" style="edgeLabel;html=1;align=center;verticalAlign=middle;resizable=0;points=[];" parent="qXBfFg2nm66dMv1WNin6-86" vertex="1" connectable="0">
          <mxGeometry x="-0.8572" y="-2" relative="1" as="geometry">
            <mxPoint as="offset" />
          </mxGeometry>
        </mxCell>
        <mxCell id="qXBfFg2nm66dMv1WNin6-89" value="" style="endArrow=none;html=1;rounded=0;entryX=0.5;entryY=1;entryDx=0;entryDy=0;exitX=0.5;exitY=0;exitDx=0;exitDy=0;startArrow=openThin;startFill=0;" parent="WIyWlLk6GJQsqaUBKTNV-1" source="qXBfFg2nm66dMv1WNin6-44" target="qXBfFg2nm66dMv1WNin6-35" edge="1">
          <mxGeometry width="50" height="50" relative="1" as="geometry">
            <mxPoint x="940" y="-270" as="sourcePoint" />
            <mxPoint x="990" y="-330" as="targetPoint" />
            <Array as="points" />
          </mxGeometry>
        </mxCell>
        <mxCell id="qXBfFg2nm66dMv1WNin6-90" value="0,*" style="edgeLabel;html=1;align=center;verticalAlign=middle;resizable=0;points=[];" parent="qXBfFg2nm66dMv1WNin6-89" vertex="1" connectable="0">
          <mxGeometry x="0.8727" y="-1" relative="1" as="geometry">
            <mxPoint y="12" as="offset" />
          </mxGeometry>
        </mxCell>
        <mxCell id="qXBfFg2nm66dMv1WNin6-91" value="1,1" style="edgeLabel;html=1;align=center;verticalAlign=middle;resizable=0;points=[];" parent="qXBfFg2nm66dMv1WNin6-89" vertex="1" connectable="0">
          <mxGeometry x="-0.6652" y="-1" relative="1" as="geometry">
            <mxPoint y="-13" as="offset" />
          </mxGeometry>
        </mxCell>
        <mxCell id="qXBfFg2nm66dMv1WNin6-92" value="" style="endArrow=none;html=1;rounded=0;entryX=0;entryY=0.5;entryDx=0;entryDy=0;exitX=1;exitY=0.5;exitDx=0;exitDy=0;startArrow=openThin;startFill=0;" parent="WIyWlLk6GJQsqaUBKTNV-1" source="qXBfFg2nm66dMv1WNin6-75" target="qXBfFg2nm66dMv1WNin6-46" edge="1">
          <mxGeometry width="50" height="50" relative="1" as="geometry">
            <mxPoint x="540" y="-310" as="sourcePoint" />
            <mxPoint x="590" y="-360" as="targetPoint" />
          </mxGeometry>
        </mxCell>
        <mxCell id="qXBfFg2nm66dMv1WNin6-93" value="1,*" style="edgeLabel;html=1;align=center;verticalAlign=middle;resizable=0;points=[];" parent="qXBfFg2nm66dMv1WNin6-92" vertex="1" connectable="0">
          <mxGeometry x="0.6032" y="-1" relative="1" as="geometry">
            <mxPoint as="offset" />
          </mxGeometry>
        </mxCell>
        <mxCell id="qXBfFg2nm66dMv1WNin6-94" value="1,1" style="edgeLabel;html=1;align=center;verticalAlign=middle;resizable=0;points=[];" parent="qXBfFg2nm66dMv1WNin6-92" vertex="1" connectable="0">
          <mxGeometry x="-0.6368" y="-1" relative="1" as="geometry">
            <mxPoint as="offset" />
          </mxGeometry>
        </mxCell>
        <mxCell id="qXBfFg2nm66dMv1WNin6-95" value="KeyPoint" style="swimlane;fontStyle=0;align=center;verticalAlign=top;childLayout=stackLayout;horizontal=1;startSize=26;horizontalStack=0;resizeParent=1;resizeLast=0;collapsible=1;marginBottom=0;rounded=0;shadow=0;strokeWidth=1;" parent="WIyWlLk6GJQsqaUBKTNV-1" vertex="1">
          <mxGeometry x="40" y="-1320" width="160" height="140" as="geometry">
            <mxRectangle x="550" y="140" width="160" height="26" as="alternateBounds" />
          </mxGeometry>
        </mxCell>
        <mxCell id="qXBfFg2nm66dMv1WNin6-96" value="+id: int" style="text;align=left;verticalAlign=top;spacingLeft=4;spacingRight=4;overflow=hidden;rotatable=0;points=[[0,0.5],[1,0.5]];portConstraint=eastwest;" parent="qXBfFg2nm66dMv1WNin6-95" vertex="1">
          <mxGeometry y="26" width="160" height="26" as="geometry" />
        </mxCell>
        <mxCell id="qXBfFg2nm66dMv1WNin6-97" value="+name: string" style="text;align=left;verticalAlign=top;spacingLeft=4;spacingRight=4;overflow=hidden;rotatable=0;points=[[0,0.5],[1,0.5]];portConstraint=eastwest;rounded=0;shadow=0;html=0;" parent="qXBfFg2nm66dMv1WNin6-95" vertex="1">
          <mxGeometry y="52" width="160" height="26" as="geometry" />
        </mxCell>
        <mxCell id="qXBfFg2nm66dMv1WNin6-98" value="+status: bool" style="text;align=left;verticalAlign=top;spacingLeft=4;spacingRight=4;overflow=hidden;rotatable=0;points=[[0,0.5],[1,0.5]];portConstraint=eastwest;rounded=0;shadow=0;html=0;" parent="qXBfFg2nm66dMv1WNin6-95" vertex="1">
          <mxGeometry y="78" width="160" height="26" as="geometry" />
        </mxCell>
        <mxCell id="qXBfFg2nm66dMv1WNin6-99" value="+order: int" style="text;align=left;verticalAlign=top;spacingLeft=4;spacingRight=4;overflow=hidden;rotatable=0;points=[[0,0.5],[1,0.5]];portConstraint=eastwest;rounded=0;shadow=0;html=0;" parent="qXBfFg2nm66dMv1WNin6-95" vertex="1">
          <mxGeometry y="104" width="160" height="26" as="geometry" />
        </mxCell>
        <mxCell id="qXBfFg2nm66dMv1WNin6-101" value="" style="endArrow=diamondThin;html=1;rounded=0;entryX=0;entryY=1;entryDx=0;entryDy=0;exitX=1;exitY=0;exitDx=0;exitDy=0;endFill=1;" parent="WIyWlLk6GJQsqaUBKTNV-1" source="qXBfFg2nm66dMv1WNin6-95" target="qXBfFg2nm66dMv1WNin6-80" edge="1">
          <mxGeometry width="50" height="50" relative="1" as="geometry">
            <mxPoint x="150" y="-300" as="sourcePoint" />
            <mxPoint x="200" y="-350" as="targetPoint" />
            <Array as="points" />
          </mxGeometry>
        </mxCell>
        <mxCell id="qXBfFg2nm66dMv1WNin6-102" value="1,1" style="edgeLabel;html=1;align=center;verticalAlign=middle;resizable=0;points=[];" parent="qXBfFg2nm66dMv1WNin6-101" vertex="1" connectable="0">
          <mxGeometry x="0.626" y="-1" relative="1" as="geometry">
            <mxPoint as="offset" />
          </mxGeometry>
        </mxCell>
        <mxCell id="qXBfFg2nm66dMv1WNin6-103" value="1,*" style="edgeLabel;html=1;align=center;verticalAlign=middle;resizable=0;points=[];" parent="qXBfFg2nm66dMv1WNin6-101" vertex="1" connectable="0">
          <mxGeometry x="-0.6035" y="-2" relative="1" as="geometry">
            <mxPoint as="offset" />
          </mxGeometry>
        </mxCell>
        <mxCell id="qXBfFg2nm66dMv1WNin6-105" value="" style="endArrow=openThin;html=1;rounded=0;entryX=0;entryY=0;entryDx=0;entryDy=0;startArrow=none;startFill=0;endFill=0;exitX=0.5;exitY=1;exitDx=0;exitDy=0;" parent="WIyWlLk6GJQsqaUBKTNV-1" source="zkfFHV4jXpPFQw0GAbJ--17" target="zkfFHV4jXpPFQw0GAbJ--6" edge="1">
          <mxGeometry width="50" height="50" relative="1" as="geometry">
            <mxPoint x="220" y="-1280" as="sourcePoint" />
            <mxPoint x="170" y="-590" as="targetPoint" />
            <Array as="points">
              <mxPoint x="130" y="-1840" />
            </Array>
          </mxGeometry>
        </mxCell>
        <mxCell id="qXBfFg2nm66dMv1WNin6-106" value="0,*" style="edgeLabel;html=1;align=center;verticalAlign=middle;resizable=0;points=[];" parent="qXBfFg2nm66dMv1WNin6-105" vertex="1" connectable="0">
          <mxGeometry x="-0.8592" relative="1" as="geometry">
            <mxPoint as="offset" />
          </mxGeometry>
        </mxCell>
        <mxCell id="qXBfFg2nm66dMv1WNin6-107" value="0,1" style="edgeLabel;html=1;align=center;verticalAlign=middle;resizable=0;points=[];" parent="qXBfFg2nm66dMv1WNin6-105" vertex="1" connectable="0">
          <mxGeometry x="0.887" y="-2" relative="1" as="geometry">
            <mxPoint as="offset" />
          </mxGeometry>
        </mxCell>
        <mxCell id="qXBfFg2nm66dMv1WNin6-108" value="Picture" style="swimlane;fontStyle=0;align=center;verticalAlign=top;childLayout=stackLayout;horizontal=1;startSize=26;horizontalStack=0;resizeParent=1;resizeLast=0;collapsible=1;marginBottom=0;rounded=0;shadow=0;strokeWidth=1;" parent="WIyWlLk6GJQsqaUBKTNV-1" vertex="1">
          <mxGeometry x="10" y="-1430" width="220" height="90" as="geometry">
            <mxRectangle x="130" y="380" width="160" height="26" as="alternateBounds" />
          </mxGeometry>
        </mxCell>
        <mxCell id="qXBfFg2nm66dMv1WNin6-109" value="+id: int" style="text;align=left;verticalAlign=top;spacingLeft=4;spacingRight=4;overflow=hidden;rotatable=0;points=[[0,0.5],[1,0.5]];portConstraint=eastwest;" parent="qXBfFg2nm66dMv1WNin6-108" vertex="1">
          <mxGeometry y="26" width="220" height="26" as="geometry" />
        </mxCell>
        <mxCell id="qXBfFg2nm66dMv1WNin6-110" value="+path: string" style="text;align=left;verticalAlign=top;spacingLeft=4;spacingRight=4;overflow=hidden;rotatable=0;points=[[0,0.5],[1,0.5]];portConstraint=eastwest;rounded=0;shadow=0;html=0;" parent="qXBfFg2nm66dMv1WNin6-108" vertex="1">
          <mxGeometry y="52" width="220" height="26" as="geometry" />
        </mxCell>
        <mxCell id="qXBfFg2nm66dMv1WNin6-113" value="" style="endArrow=diamondThin;html=1;rounded=0;exitX=1;exitY=0.5;exitDx=0;exitDy=0;entryX=0;entryY=0;entryDx=0;entryDy=0;endFill=1;" parent="WIyWlLk6GJQsqaUBKTNV-1" source="qXBfFg2nm66dMv1WNin6-109" target="qXBfFg2nm66dMv1WNin6-78" edge="1">
          <mxGeometry width="50" height="50" relative="1" as="geometry">
            <mxPoint x="80" y="-280" as="sourcePoint" />
            <mxPoint x="190" y="-270" as="targetPoint" />
            <Array as="points" />
          </mxGeometry>
        </mxCell>
        <mxCell id="qXBfFg2nm66dMv1WNin6-114" value="1,*" style="edgeLabel;html=1;align=center;verticalAlign=middle;resizable=0;points=[];" parent="qXBfFg2nm66dMv1WNin6-113" vertex="1" connectable="0">
          <mxGeometry x="-0.8357" y="1" relative="1" as="geometry">
            <mxPoint as="offset" />
          </mxGeometry>
        </mxCell>
        <mxCell id="qXBfFg2nm66dMv1WNin6-115" value="1,1" style="edgeLabel;html=1;align=center;verticalAlign=middle;resizable=0;points=[];" parent="qXBfFg2nm66dMv1WNin6-113" vertex="1" connectable="0">
          <mxGeometry x="0.785" y="-1" relative="1" as="geometry">
            <mxPoint x="-6" y="-3" as="offset" />
          </mxGeometry>
        </mxCell>
        <mxCell id="1L37XqyfGO9U7aB_r4r0-4" value="" style="endArrow=openThin;html=1;rounded=0;entryX=1;entryY=1;entryDx=0;entryDy=0;exitX=0;exitY=0;exitDx=0;exitDy=0;startArrow=none;startFill=0;endFill=0;" parent="WIyWlLk6GJQsqaUBKTNV-1" source="qXBfFg2nm66dMv1WNin6-74" target="zkfFHV4jXpPFQw0GAbJ--6" edge="1">
          <mxGeometry width="50" height="50" relative="1" as="geometry">
            <mxPoint x="350" y="-380" as="sourcePoint" />
            <mxPoint x="400" y="-430" as="targetPoint" />
          </mxGeometry>
        </mxCell>
        <mxCell id="1L37XqyfGO9U7aB_r4r0-5" value="1,1" style="edgeLabel;html=1;align=center;verticalAlign=middle;resizable=0;points=[];" parent="1L37XqyfGO9U7aB_r4r0-4" vertex="1" connectable="0">
          <mxGeometry x="0.6958" y="1" relative="1" as="geometry">
            <mxPoint as="offset" />
          </mxGeometry>
        </mxCell>
        <mxCell id="1L37XqyfGO9U7aB_r4r0-6" value="0,*" style="edgeLabel;html=1;align=center;verticalAlign=middle;resizable=0;points=[];" parent="1L37XqyfGO9U7aB_r4r0-4" vertex="1" connectable="0">
          <mxGeometry x="-0.7494" relative="1" as="geometry">
            <mxPoint as="offset" />
          </mxGeometry>
        </mxCell>
      </root>
    </mxGraphModel>
  </diagram>
</mxfile>
